<svg id='Up_Arrow_24' width='24' height='24' viewBox='0 0 24 24' xmlns='http://www.w3.org/2000/svg' xmlns:xlink='http://www.w3.org/1999/xlink'><rect width='24' height='24' stroke='none' fill='white' opacity='0'/>


<g transform="matrix(0.42 0 0 0.42 12 12)" >
<path style="stroke: none; stroke-width: 1; stroke-dasharray: none; stroke-linecap: butt; stroke-dashoffset: 0; stroke-linejoin: miter; stroke-miterlimit: 4; fill: rgb(0,0,0); fill-rule: nonzero; opacity: 1;" transform=" translate(-25, -25.01)" d="M 25 1.015625 L 14.308594 11.28125 C 14.046875 11.527344 13.9375 11.894531 14.023438 12.242188 C 14.109375 12.589844 14.375 12.867188 14.71875 12.964844 C 15.066406 13.066406 15.4375 12.972656 15.691406 12.71875 L 24 4.746094 L 24 48 C 23.996094 48.359375 24.183594 48.695313 24.496094 48.878906 C 24.808594 49.058594 25.191406 49.058594 25.503906 48.878906 C 25.816406 48.695313 26.003906 48.359375 26 48 L 26 4.746094 L 34.308594 12.71875 C 34.5625 12.972656 34.933594 13.066406 35.28125 12.964844 C 35.625 12.867188 35.890625 12.589844 35.976563 12.242188 C 36.0625 11.894531 35.953125 11.527344 35.691406 11.28125 Z" stroke-linecap="round" />
</g>
</svg>